<svg xmlns="http://www.w3.org/2000/svg" width="512" height="512" viewBox="0 0 512 512" role="img" aria-label="Babak Barghi">
  <defs>
    <linearGradient id="accent" x1="0" y1="0" x2="1" y2="1">
      <stop offset="0" stop-color="#00A693"/>
      <stop offset="0.55" stop-color="#D4AF37"/>
      <stop offset="1" stop-color="#C84B6C"/>
    </linearGradient>
  </defs>
  <rect width="512" height="512" rx="112" fill="#0a192f"/>
  <path d="M140 128h160c60 0 104 36 104 88 0 34-18 60-50 72 42 12 66 42 66 86 0 64-52 110-124 110H140V128zm158 142c28 0 46-16 46-38s-18-38-46-38H212v76h86zm22 192c34 0 56-20 56-48 0-30-22-48-56-48h-108v96h108z" fill="url(#accent)"/>
</svg>
