<svg xmlns="http://www.w3.org/2000/svg" width="1200" height="630" viewBox="0 0 1200 630" role="img" aria-label="Babak Barghi — Architecting intelligent systems">
  <defs>
    <linearGradient id="bg" x1="0" y1="0" x2="1" y2="1">
      <stop offset="0" stop-color="#0a192f"/>
      <stop offset="1" stop-color="#0f172a"/>
    </linearGradient>
    <linearGradient id="accent" x1="0" y1="0" x2="1" y2="0">
      <stop offset="0" stop-color="#00A693"/>
      <stop offset="0.55" stop-color="#D4AF37"/>
      <stop offset="1" stop-color="#C84B6C"/>
    </linearGradient>
    <filter id="noise" x="-20%" y="-20%" width="140%" height="140%">
      <feTurbulence type="fractalNoise" baseFrequency="0.8" numOctaves="3" stitchTiles="stitch"/>
      <feColorMatrix type="matrix" values="0 0 0 0 0  0 0 0 0 0  0 0 0 0 0  0 0 0 0.12 0"/>
    </filter>
  </defs>

  <rect width="1200" height="630" fill="url(#bg)"/>
  <rect width="1200" height="630" filter="url(#noise)" opacity="0.25"/>

  <circle cx="980" cy="-40" r="380" fill="#00A693" opacity="0.08"/>
  <circle cx="220" cy="700" r="420" fill="#C84B6C" opacity="0.06"/>

  <rect x="96" y="110" width="84" height="84" rx="20" fill="#0a192f" stroke="#00A693" stroke-opacity="0.35"/>
  <path d="M120 122h38c15 0 26 9 26 22 0 8-4 14-12 18 10 3 16 10 16 20 0 16-13 28-31 28h-37v-88zm38 37c7 0 12-4 12-9 0-6-5-10-12-10h-17v19h17zm5 42c9 0 14-5 14-12 0-8-5-12-14-12h-22v24h22z" fill="url(#accent)"/>

  <text x="206" y="170" fill="#e2e8f0" font-family="ui-sans-serif, system-ui, -apple-system, Segoe UI, Roboto, Helvetica, Arial" font-size="52" font-weight="700">Babak Barghi</text>
  <text x="206" y="218" fill="#00A693" font-family="ui-sans-serif, system-ui, -apple-system, Segoe UI, Roboto, Helvetica, Arial" font-size="28" font-weight="600">Software Solutions Architect</text>

  <rect x="206" y="260" width="520" height="8" rx="4" fill="url(#accent)" opacity="0.55"/>

  <text x="206" y="330" fill="#94a3b8" font-family="ui-sans-serif, system-ui, -apple-system, Segoe UI, Roboto, Helvetica, Arial" font-size="28" font-weight="500">Architecting intelligent systems</text>

  <text x="206" y="402" fill="#cbd5e1" font-family="ui-sans-serif, system-ui, -apple-system, Segoe UI, Roboto, Helvetica, Arial" font-size="22">babakbarghi.com</text>
</svg>
